HIERARCHY
ROOT Hips
{
	OFFSET	0.000000	0.000000	0.000000
	CHANNELS 6 Xposition Yposition Zposition Zrotation Xrotation Yrotation
	JOINT LeftUpLeg
	{
		OFFSET	12.830505	-7.049846	-1.643436
		CHANNELS 3 Zrotation Xrotation Yrotation
		JOINT LeftLeg
		{
			OFFSET	0.620834	-39.957500	-1.919341
			CHANNELS 3 Zrotation Xrotation Yrotation
			JOINT LeftFoot
			{
				OFFSET	-0.413890	-44.704761	-3.870325
				CHANNELS 3 Zrotation Xrotation Yrotation
				JOINT LeftFootHeel
				{
					OFFSET	0.717369	-8.904096	-5.182565
					CHANNELS 3 Zrotation Xrotation Yrotation
					End Site
					{
						OFFSET	0.332974	0.000000	18.777164
					}
				}
			}
		}
	}
	JOINT RightUpLeg
	{
		OFFSET	-12.830505	-7.049846	-1.643436
		CHANNELS 3 Zrotation Xrotation Yrotation
		JOINT RightLeg
		{
			OFFSET	-0.620834	-39.957500	-1.919341
			CHANNELS 3 Zrotation Xrotation Yrotation
			JOINT RightFoot
			{
				OFFSET	0.413890	-44.704761	-3.870325
				CHANNELS 3 Zrotation Xrotation Yrotation
				JOINT RightFootHeel
				{
					OFFSET	-0.717369	-8.904096	-5.182565
					CHANNELS 3 Zrotation Xrotation Yrotation
					End Site
					{
						OFFSET	-0.332974	0.000000	18.777164
					}
				}
			}
		}
	}
	JOINT Spine
	{
		OFFSET	0.000000	12.498170	1.820647
		CHANNELS 3 Zrotation Xrotation Yrotation
		JOINT Spine1
		{
			OFFSET	0.000000	7.620000	0.000000
			CHANNELS 3 Zrotation Xrotation Yrotation
			JOINT LeftShoulder
			{
				OFFSET	9.167800	29.136339	-5.551221
				CHANNELS 3 Zrotation Xrotation Yrotation
				JOINT LeftArm
				{
					OFFSET	12.133453	-3.880866	1.461963
					CHANNELS 3 Zrotation Xrotation Yrotation
					JOINT LeftForeArm
					{
						OFFSET	2.507115	-31.664908	-1.069404
						CHANNELS 3 Zrotation Xrotation Yrotation
						JOINT LeftHand
						{
							OFFSET	4.116172	-24.512624	5.009439
							CHANNELS 3 Zrotation Xrotation Yrotation
							End Site
							{
								OFFSET	-0.213136	-10.931856	2.182134
							}
						}
					}
				}
			}
			JOINT RightShoulder
			{
				OFFSET	-9.167800	29.136339	-5.551221
				CHANNELS 3 Zrotation Xrotation Yrotation
				JOINT RightArm
				{
					OFFSET	-12.133453	-3.880866	1.461963
					CHANNELS 3 Zrotation Xrotation Yrotation
					JOINT RightForeArm
					{
						OFFSET	-2.507115	-31.664908	-1.069404
						CHANNELS 3 Zrotation Xrotation Yrotation
						JOINT RightHand
						{
							OFFSET	-4.116172	-24.512624	5.009439
							CHANNELS 3 Zrotation Xrotation Yrotation
							End Site
							{
								OFFSET	0.213136	-10.931856	2.182134
							}
						}
					}
				}
			}
			JOINT Neck
			{
				OFFSET	0.000000	32.926272	-3.635654
				CHANNELS 3 Zrotation Xrotation Yrotation
				JOINT Head
				{
					OFFSET	0.000000	12.481178	4.646143
					CHANNELS 3 Zrotation Xrotation Yrotation
					End Site
					{
						OFFSET	0.000000	17.715204	-2.222063
					}
				}
			}
		}
	}
}
MOTION
Frames:     20
Frame Time: 0.016667
0.000000	103.143654	0.000000	0.163107	1.630442	0.831906	0.440877	-1.950674	-0.838432	-0.621275	0.618893	-0.371463	-0.132021	-0.277657	0.406566	0.	0.	0.	-0.094109	-1.642294	1.672136	-0.048197	0.161636	-0.745141	-0.057189	-0.131120	-1.786584	0.	0.	0.	-0.965192	-4.096818	2.569783	1.472705	2.595650	-3.630947	-0.895000	-0.295339	0.088628	0.639796	1.973158	2.201628	-0.158961	-0.946179	3.750299	-0.216070	-0.791967	1.481543	-0.413628	-0.949771	1.361816	0.045700	0.837169	1.967464	0.104375	0.031736	-2.250025	-1.103948	4.952289	10.936306	0.276893	1.719977	-0.377392	-3.272404	-0.647338	1.629980	
-0.002340	103.146222	0.007157	0.175641	1.631309	0.800453	0.439652	-1.995190	-0.809583	-0.638694	0.659471	-0.397273	-0.125391	-0.274372	0.435561	0.	0.	0.	-0.105758	-1.643039	1.703244	-0.048197	0.161636	-0.745141	-0.057189	-0.131120	-1.786584	0.	0.	0.	-0.975507	-4.098035	2.600942	1.474392	2.595434	-3.607069	-0.888769	-0.268360	0.063819	0.638875	1.946709	2.204458	-0.148236	-0.956982	3.751281	-0.223808	-0.777867	1.490652	-0.412471	-0.921771	1.344146	0.041894	0.809534	1.961253	0.102898	0.020677	-2.223505	-1.099341	4.957484	10.951380	0.275917	1.719971	-0.401356	-3.311374	-0.567878	1.683738	
-0.004509	103.148615	0.013772	0.187228	1.632118	0.771405	0.432346	-2.009689	-0.781565	-0.645439	0.671843	-0.410694	-0.122074	-0.272741	0.450017	0.	0.	0.	-0.116526	-1.643743	1.731972	-0.048197	0.161636	-0.745141	-0.057189	-0.131120	-1.786584	0.	0.	0.	-0.985042	-4.099175	2.629719	1.475527	2.595290	-3.590942	-0.885959	-0.254790	0.047212	0.634817	1.933472	2.205055	-0.135496	-0.969270	3.752753	-0.222442	-0.765783	1.490685	-0.413111	-0.915093	1.329440	0.038011	0.798210	1.969018	0.107409	0.017054	-2.230238	-1.100193	4.959401	11.007589	0.275261	1.719966	-0.417542	-3.333728	-0.519652	1.690737	
-0.006263	103.150553	0.019096	0.196583	1.632753	0.748006	0.432688	-2.048046	-0.760350	-0.659603	0.707323	-0.429057	-0.117247	-0.270361	0.471124	0.	0.	0.	-0.125220	-1.644302	1.755113	-0.048197	0.161636	-0.745141	-0.057189	-0.131120	-1.786584	0.	0.	0.	-0.992743	-4.100084	2.652899	1.475527	2.595290	-3.590942	-0.873230	-0.212939	0.045843	0.621991	1.891648	2.206936	-0.118482	-0.999795	3.752920	-0.222568	-0.734135	1.497296	-0.413111	-0.915093	1.329439	0.021161	0.770067	2.018013	0.125252	0.044495	-2.279060	-1.098211	4.950163	11.067446	0.282572	1.734668	-0.415788	-3.398451	-0.411994	1.725293	
-0.006653	103.150970	0.020289	0.198679	1.632903	0.742768	0.436530	-2.072756	-0.756429	-0.665699	0.731851	-0.427306	-0.117247	-0.270361	0.471124	0.	0.	0.	-0.127169	-1.644435	1.760293	-0.048197	0.161636	-0.745141	-0.057189	-0.131120	-1.786584	0.	0.	0.	-0.994470	-4.100296	2.658087	1.475527	2.595290	-3.590942	-0.865524	-0.187601	0.045010	0.614228	1.866327	2.208068	-0.118482	-0.999795	3.752920	-0.227894	-0.730469	1.509902	-0.413111	-0.915093	1.329439	0.010776	0.749553	2.036074	0.134266	0.052908	-2.265724	-1.092360	4.955620	11.081060	0.294951	1.759448	-0.412842	-3.449590	-0.353657	1.742938	
-0.006653	103.150970	0.020289	0.198679	1.632903	0.742768	0.442057	-2.096404	-0.757647	-0.671557	0.755408	-0.425612	-0.117247	-0.270361	0.471124	0.	0.	0.	-0.127169	-1.644435	1.760293	-0.048197	0.161636	-0.745141	-0.057189	-0.131120	-1.786584	0.	0.	0.	-0.994470	-4.100296	2.658087	1.475527	2.595290	-3.590942	-0.858045	-0.163013	0.044197	0.606694	1.841753	2.209167	-0.118482	-0.999795	3.752920	-0.237087	-0.724145	1.531653	-0.413111	-0.915093	1.329439	0.002236	0.728547	2.035053	0.140581	0.060757	-2.225611	-1.085831	4.966098	11.063056	0.309371	1.788651	-0.409366	-3.494825	-0.316243	1.750223	
-0.006653	103.150970	0.020289	0.198679	1.632903	0.742768	0.447951	-2.121631	-0.758926	-0.677804	0.780533	-0.423820	-0.117247	-0.270361	0.471124	0.	0.	0.	-0.127169	-1.644435	1.760293	-0.048197	0.161636	-0.745141	-0.057189	-0.131120	-1.786584	0.	0.	0.	-0.994470	-4.100296	2.658087	1.475527	2.595290	-3.590942	-0.840323	-0.148286	0.056321	0.589341	1.826916	2.197238	-0.118482	-0.999795	3.752920	-0.246599	-0.717596	1.554137	-0.413111	-0.915093	1.329439	-0.007059	0.705710	2.033940	0.147994	0.071594	-2.188903	-1.079823	4.975311	11.048558	0.325950	1.822308	-0.405365	-3.521819	-0.264511	1.788261	
-0.006653	103.150970	0.020289	0.198679	1.632903	0.742768	0.451102	-2.135109	-0.759605	-0.681145	0.793959	-0.422864	-0.117247	-0.270361	0.471124	0.	0.	0.	-0.127169	-1.644435	1.760293	-0.048197	0.161636	-0.745141	-0.057189	-0.131120	-1.786584	0.	0.	0.	-0.994470	-4.100296	2.658087	1.475848	2.595235	-3.586257	-0.832031	-0.151060	0.060772	0.581009	1.829709	2.188080	-0.118482	-0.999795	3.752921	-0.281791	-0.713858	1.554940	-0.413509	-0.915025	1.324741	-0.015980	0.683786	2.032897	0.155537	0.088836	-2.166520	-1.075995	4.980144	11.027283	0.343015	1.857532	-0.405873	-3.557336	-0.259966	1.787833	
-0.006829	103.151018	0.019506	0.198679	1.632903	0.742768	0.457259	-2.161471	-0.760964	-0.687674	0.820219	-0.420959	-0.117247	-0.270361	0.471124	0.	0.	0.	-0.126674	-1.645470	1.765756	-0.048645	0.162690	-0.750587	-0.057189	-0.131120	-1.786584	0.	0.	0.	-0.994470	-4.100296	2.658087	1.476493	2.595134	-3.576853	-0.813811	-0.157175	0.071403	0.562764	1.835845	2.167996	-0.118482	-0.999795	3.752920	-0.323093	-0.714112	1.537254	-0.414309	-0.914897	1.315308	-0.019884	0.674196	2.032447	0.161391	0.088314	-2.163120	-1.077745	4.990098	11.024524	0.351470	1.875460	-0.413188	-3.581686	-0.244796	1.794028	
-0.007003	103.151047	0.018723	0.198679	1.632903	0.742768	0.460159	-2.173864	-0.761585	-0.690748	0.832561	-0.420081	-0.117247	-0.270361	0.471124	0.	0.	0.	-0.126179	-1.646503	1.771219	-0.049092	0.163742	-0.756035	-0.057189	-0.131120	-1.786584	0.	0.	0.	-0.994470	-4.100296	2.658087	1.476814	2.595081	-3.572148	-0.782594	-0.167687	0.100290	0.532306	1.846179	2.134360	-0.118482	-0.999795	3.752920	-0.338143	-0.714196	1.530809	-0.414708	-0.914829	1.310585	-0.023670	0.664913	2.032009	0.167139	0.087340	-2.159689	-1.079517	5.000201	11.021725	0.360080	1.893349	-0.415792	-3.606979	-0.227508	1.800364	
-0.007182	103.151115	0.017902	0.198679	1.632903	0.742768	0.466877	-2.202636	-0.763046	-0.697874	0.861216	-0.418016	-0.117247	-0.270361	0.471124	0.	0.	0.	-0.125663	-1.647587	1.776982	-0.049558	0.164847	-0.761785	-0.057189	-0.131120	-1.786584	0.	0.	0.	-0.994470	-4.100296	2.658087	1.477145	2.595034	-3.567329	-0.750129	-0.178697	0.130516	0.500650	1.857029	2.099284	-0.118482	-0.999795	3.752921	-0.347340	-0.714249	1.526869	-0.415118	-0.914768	1.305754	-0.027333	0.655908	2.031601	0.176443	0.063218	-2.149530	-1.084359	5.028778	11.040733	0.394729	1.964607	-0.412215	-3.699033	-0.173620	1.798452	
-0.008328	103.151357	0.012580	0.198679	1.632903	0.742768	0.469377	-2.213327	-0.763584	-0.700526	0.871866	-0.417252	-0.117247	-0.270361	0.471124	0.	0.	0.	-0.122351	-1.654604	1.814279	-0.052538	0.171998	-0.798979	-0.057189	-0.131120	-1.786584	0.	0.	0.	-0.994470	-4.100296	2.658087	1.478496	2.594801	-3.547433	-0.729553	-0.185788	0.134141	0.479433	1.864379	2.075698	-0.118482	-0.999795	3.752920	-0.390114	-0.714491	1.508549	-0.416798	-0.914474	1.285793	-0.027333	0.655908	2.031601	0.176443	0.063218	-2.149530	-1.083182	5.023407	11.075437	0.410635	1.999064	-0.428147	-3.729815	-0.175920	1.789889	
-0.009185	103.151561	0.008585	0.198679	1.632903	0.742768	0.473367	-2.230397	-0.764446	-0.704759	0.888868	-0.416026	-0.117247	-0.270361	0.471124	0.	0.	0.	-0.119868	-1.659871	1.842311	-0.054765	0.177367	-0.826934	-0.057189	-0.131120	-1.786584	0.	0.	0.	-0.995109	-4.105357	2.682651	1.481975	2.598931	-3.550139	-0.708784	-0.192980	0.135969	0.457892	1.871872	2.051754	-0.118482	-0.999795	3.752920	-0.390114	-0.714491	1.508550	-0.418648	-0.914147	1.263674	-0.027333	0.655908	2.031601	0.176443	0.063218	-2.149531	-1.081429	5.015532	11.126697	0.424484	2.029676	-0.446692	-3.748173	-0.197456	1.783314	
-0.010072	103.151774	0.004370	0.198679	1.632903	0.742768	0.478896	-2.254051	-0.765623	-0.710626	0.912427	-0.414341	-0.117247	-0.270361	0.471124	0.	0.	0.	-0.117268	-1.665428	1.871955	-0.057090	0.183035	-0.856497	-0.057189	-0.131120	-1.786584	0.	0.	0.	-0.996059	-4.112921	2.719397	1.486545	2.605196	-3.563595	-0.690710	-0.199270	0.133494	0.438846	1.878524	2.030593	-0.118482	-0.999795	3.752920	-0.390114	-0.714491	1.508551	-0.420624	-0.913781	1.240027	-0.027333	0.655908	2.031601	0.176443	0.063218	-2.149530	-1.080161	5.009768	11.164308	0.437238	2.058094	-0.467014	-3.778064	-0.189166	1.775622	
-0.010845	103.151958	0.000653	0.198679	1.632903	0.742768	0.481728	-2.266176	-0.766234	-0.713632	0.924503	-0.413468	-0.117247	-0.270361	0.471124	0.	0.	0.	-0.114982	-1.670322	1.898303	-0.059127	0.188028	-0.882773	-0.057189	-0.131120	-1.786584	0.	0.	0.	-0.996947	-4.120031	2.753922	1.490876	2.611083	-3.575692	-0.672170	-0.205737	0.132292	0.419414	1.885317	2.009034	-0.118482	-0.999796	3.752921	-0.394118	-0.711769	1.517857	-0.422522	-0.913439	1.217256	-0.027333	0.655908	2.031602	0.176443	0.063218	-2.149530	-1.078895	5.004049	11.201453	0.449918	2.086294	-0.486490	-3.795501	-0.207767	1.769443	
-0.011218	103.152045	-0.001076	0.198679	1.632903	0.742768	0.487484	-2.290830	-0.767475	-0.719741	0.949055	-0.411691	-0.117247	-0.270361	0.471124	0.	0.	0.	-0.113903	-1.672595	1.910523	-0.060089	0.190347	-0.894960	-0.057189	-0.131120	-1.786584	0.	0.	0.	-0.997361	-4.123357	2.770067	1.492979	2.613825	-3.580203	-0.663656	-0.208713	0.130498	0.410400	1.888473	1.999039	-0.118482	-0.999796	3.752920	-0.408118	-0.709110	1.522880	-0.423505	-0.913262	1.205459	-0.027333	0.655908	2.031601	0.176443	0.063218	-2.149531	-1.078309	5.001472	11.218141	0.455710	2.099230	-0.496778	-3.801550	-0.220614	1.766850	
-0.012012	103.152239	-0.004779	0.198679	1.632903	0.742768	0.493146	-2.315065	-0.768693	-0.725753	0.973194	-0.409940	-0.117247	-0.270361	0.471124	0.	0.	0.	-0.111590	-1.677473	1.936721	-0.062148	0.195329	-0.921085	-0.057189	-0.131120	-1.786584	0.	0.	0.	-0.998238	-4.130433	2.804407	1.497496	2.619632	-3.589206	-0.647072	-0.214527	0.124482	0.392650	1.894695	1.979385	-0.118482	-0.999795	3.752921	-0.435718	-0.709267	1.511056	-0.425649	-0.912862	1.179771	-0.027333	0.655908	2.031602	0.176443	0.063218	-2.149531	-1.077201	4.996665	11.249099	0.465826	2.122196	-0.519813	-3.812265	-0.243419	1.762250	
-0.012430	103.152336	-0.006743	0.198679	1.632903	0.742768	0.495949	-2.327085	-0.769299	-0.728730	0.985164	-0.409068	-0.117247	-0.270361	0.471124	0.	0.	0.	-0.110369	-1.680057	1.950580	-0.063234	0.197967	-0.934905	-0.057189	-0.131120	-1.786584	0.	0.	0.	-0.999501	-4.140701	2.854231	1.504283	2.627975	-3.598420	-0.630341	-0.220471	0.104329	0.373722	1.901368	1.958432	-0.118482	-0.999795	3.752920	-0.463249	-0.709412	1.499269	-0.429053	-0.912186	1.138641	-0.027333	0.655908	2.031601	0.176443	0.063218	-2.149531	-1.075516	4.989487	11.295281	0.478578	2.151421	-0.557578	-3.836871	-0.248444	1.755047	
-0.014154	103.152743	-0.014901	0.198679	1.632903	0.742768	0.506802	-2.373549	-0.771605	-0.740257	1.031441	-0.405723	-0.117247	-0.270361	0.471124	0.	0.	0.	-0.105325	-1.690804	2.008120	-0.067698	0.208948	-0.992285	-0.057189	-0.131120	-1.786584	0.	0.	0.	-1.000363	-4.147733	2.888376	1.508694	2.633724	-3.608330	-0.601598	-0.230552	0.112366	0.344350	1.911789	1.925854	-0.118482	-0.999795	3.752920	-0.467943	-0.709437	1.497259	-0.431079	-0.911776	1.114058	-0.027333	0.655908	2.031602	0.176443	0.063218	-2.149531	-1.074282	4.984151	11.329481	0.480147	2.156188	-0.581627	-3.851926	-0.224896	1.752522	
-0.014885	103.152917	-0.018373	0.198679	1.632903	0.742768	0.510930	-2.391222	-0.772493	-0.744641	1.049041	-0.404436	-0.117247	-0.270361	0.471124	0.	0.	0.	-0.103186	-1.695375	2.032557	-0.069583	0.213621	-1.016654	-0.057189	-0.131120	-1.786584	0.	0.	0.	-1.001240	-4.154927	2.923291	1.513220	2.639604	-3.618228	-0.583225	-0.237070	0.108636	0.324926	1.918712	1.904251	-0.118482	-0.999795	3.752920	-0.467943	-0.709437	1.497261	-0.433167	-0.911356	1.088690	-0.028553	0.655903	2.042696	0.175724	0.065686	-2.150850	-1.070118	4.976294	11.355205	0.479418	2.156205	-0.607013	-3.864140	-0.197873	1.751048	
